<svg xmlns="http://www.w3.org/2000/svg" xml:space="preserve" width="2000" height="1500" data-id="lg_Cnw2n41ib1pERhxzbg" data-version="1" viewBox="0 0 2000 1500"><path fill="#b90000" stroke="transparent" d="M0 0h2000v1500H0z"/><g data-padding="20"><g transform="translate(-1453.194 -1088.355)scale(2.38932)"><rect width="125.289" height="125.289" x="269.056" y="178.043" rx="0" ry="0" transform="translate(419.19 228.15)scale(2.25)"/><rect width="247.537" height="463.3" x="637.788" y="320.948" fill="none" rx="0" ry="0" transform="matrix(.98 0 0 .98 121.97 227.86)"/><path d="M774.95 623.935V895.15h40.984v-79.155h79.35q45.003 0 60.575-27.43 15.572-27.42 15.572-68.806 0-41.18-15.572-68.502-15.573-27.32-60.574-27.32Zm107.88 163.533h-66.895V652.463h66.895q26.519 0 37.172 17.375 10.642 17.376 10.642 50.127 0 32.742-10.642 50.117-10.653 17.386-37.172 17.386"/><path fill="#b90000" d="M1277.908 669.544c-.528-1.32-2.112-1.848-3.432-1.32-11.352 5.28-23.496 9.504-35.904 12.936a290.4 290.4 0 0 0-145.992 0c-12.408-3.432-24.552-7.656-35.904-12.936-1.32-.528-2.904 0-3.432 1.32s0 2.904 1.32 3.432c9.24 4.224 18.744 7.656 28.776 10.824-9.768 2.904-19.536 6.6-28.776 10.824-1.32.528-1.848 2.112-1.32 3.432s2.112 1.848 3.432 1.32c11.352-5.28 23.496-9.504 35.904-12.936 23.496 6.336 48.312 9.504 72.864 9.504s49.368-3.168 72.864-9.504c12.408 3.432 24.552 7.656 35.904 12.936.264.264.792.264 1.056.264q1.584 0 2.376-1.584c.528-1.32 0-2.904-1.32-3.432-9.24-4.224-18.744-7.656-28.776-10.824 9.768-2.904 19.536-6.6 28.776-10.824 1.584-.528 2.112-1.848 1.584-3.432m-174.504 14.52c40.392-9.24 83.952-9.24 124.08 0-40.392 8.976-83.688 8.976-124.08 0"/></g><path fill="transparent" stroke="transparent" stroke-width="2.478" d="M307.406 187.5h1385.188v1125H307.406z"/></g></svg>